<svg width="300" height="80" viewBox="0 0 724 115" fill="none" xmlns="http://www.w3.org/2000/svg"><path d="M122.438.620117H149.231L127.166 74.8007H88.8147L75.1554 28.3072H74.1047L59.92 74.8007H22.0943L.554688.620117H27.3479L41.5325 58.0839H42.0579L60.9708.620117H88.2893L106.151 58.0839H106.677L122.438.620117z" fill="#4167b2"/><path d="M184.43 30.3968h42.554V43.9792H184.43V58.6063H230.661V74.8007H158.162V.620117H229.611V16.8145H184.43V30.3968z" fill="#4167b2"/><path d="M247.998.620117H300.008C319.972.620117 331.53 3.23212 331.53 19.4265 331.53 28.8296 328.903 35.0984 315.769 36.6656V37.7104C330.479 38.2328 333.106 45.024 333.106 54.4271 333.106 72.7111 321.548 75.3231 300.534 75.3231H247.998V.620117zM274.266 30.3968H293.179C302.635 30.3968 304.737 29.352 304.737 23.0832 304.737 18.3817 303.161 16.8145 296.331 16.8145H274.266V30.3968zM274.266 59.1287H294.229C302.635 59.1287 306.313 57.5615 306.313 51.8151 306.313 45.5464 303.161 45.024 294.755 45.024H274.266V59.1287z" fill="#4167b2"/><path d="M374.084 75.3231H347.816V.620117H397.725C422.417.620117 431.874 7.41129 431.874 26.74 431.874 47.636 425.569 54.4271 397.725 54.4271H374.084V75.3231zm0-37.0903H392.472C402.454 38.2328 404.555 36.6656 404.555 27.2624 404.555 19.4265 402.979 16.8145 392.472 16.8145H374.084V38.2328z" fill="#4167b2"/><path d="M443.43 48.6808V27.7848C443.43 4.79931 462.343.620117 489.661.620117 516.98.620117 535.893 5.3217 535.893 27.7848V48.6808C535.893 71.6663 516.98 76.3679 489.661 76.3679 462.343 76.3679 443.43 71.1439 443.43 48.6808zM508.049 46.0688V29.352C508.049 18.3817 503.32 17.3369 489.136 17.3369 474.951 17.3369 470.223 18.3817 470.223 29.352V46.0688C470.223 57.0391 474.951 58.6063 489.136 58.6063 503.32 58.6063 508.049 57.5615 508.049 46.0688z" fill="#4167b2"/><path d="M576.871 75.3231H550.604V.620117H601.563C624.679.620117 634.661 5.3217 634.661 23.0832 634.661 38.2328 632.559 43.4568 616.798 46.0688V47.1136C628.882 48.1584 634.661 51.8152 634.661 60.1735V75.3231H608.393V62.7855C608.393 57.0391 605.241 53.3824 597.36 53.3824H576.871V75.3231zM576.871 37.188H597.36C607.867 37.188 608.393 34.576 608.393 25.6952 608.393 18.9041 606.291 16.8145 597.36 16.8145H576.871V37.188z" fill="#4167b2"/><path d="M696.651 75.3231H670.383V17.8593H643.59V.620117H723.444V17.8593H696.651V75.3231z" fill="#4167b2"/><path d="M28.9249 113.981H22.0953V98.8312H15.2656V94.1296H35.2292V98.8312H28.3995V113.981H28.9249z" fill="#000"/><path d="M94.068 102.488H104.575V106.145H94.068V109.802H105.626V113.981H87.7637V94.1296H105.626V98.3088H94.5933V102.488H94.068z" fill="#000"/><path d="M173.923 101.443V100.921C173.923 99.3536 172.347 98.8312 169.72 98.8312 166.043 98.8312 165.517 99.8761 165.517 102.488V105.622C165.517 108.757 165.517 109.802 169.72 109.802 172.347 109.802 173.923 109.802 173.923 107.19V106.667H180.753V107.19C180.753 112.936 178.126 113.981 170.771 113.981 163.941 113.981 159.213 113.458 159.213 106.667V101.443C159.213 95.1744 163.416 94.1296 170.771 94.1296 177.075 94.1296 180.753 95.6969 180.753 100.398V100.921H173.923V101.443z" fill="#000"/><path d="M240.119 101.966H248.524V94.6521H255.354V113.981H248.524V106.145H240.119V113.981H233.289V94.1296H240.119V101.966z" fill="#000"/><path d="M319.974 94.6521 327.329 109.802 326.803 94.6521H333.633V113.981H322.075L314.72 98.8312 315.246 113.981H308.416V94.1296H319.974V94.6521z" fill="#000"/><path d="M386.168 107.19v-5.747C386.168 95.1744 390.896 94.1296 397.726 94.1296 404.555 94.1296 409.284 95.1744 409.284 101.443v5.747C409.284 113.458 404.555 114.503 397.726 114.503 390.896 114.503 386.168 112.936 386.168 107.19zM402.454 106.667V102.488C402.454 99.3537 401.403 99.3536 397.726 99.3536 394.048 99.3536 392.998 99.8761 392.998 102.488V106.667C392.998 109.802 394.048 109.802 397.726 109.802 401.403 109.802 402.454 109.279 402.454 106.667z" fill="#000"/><path d="M468.648 109.279H479.155V113.981H462.344V94.1296H469.173V109.279H468.648z" fill="#000"/><path d="M530.641 107.19v-5.747C530.641 95.1744 535.369 94.1296 542.198 94.1296 549.028 94.1296 553.756 95.1744 553.756 101.443v5.747C553.756 113.458 549.028 114.503 542.198 114.503 535.369 114.503 530.641 112.936 530.641 107.19zM546.401 106.667V102.488C546.401 99.3537 545.351 99.3536 541.673 99.3536 537.996 99.3536 536.945 99.8761 536.945 102.488V106.667C536.945 109.802 537.996 109.802 541.673 109.802 545.351 109.802 546.401 109.279 546.401 106.667z" fill="#000"/><path d="M621.526 100.398C621.526 98.8313 619.425 98.3089 617.323 98.3089 612.595 98.3089 612.595 99.3537 612.595 102.488V105.622C612.595 109.279 614.171 109.802 617.323 109.802 620.476 109.802 621.526 109.279 621.526 106.667H616.798V103.01H627.831V106.667C627.831 113.458 625.729 114.503 616.798 114.503 608.918 114.503 605.24 113.458 605.24 107.19V101.966C605.24 95.6969 609.969 94.6521 616.798 94.6521 623.102 94.6521 627.831 95.6969 627.831 100.921H621.526V100.398z" fill="#000"/><path d="M686.673 94.6521 690.876 102.488 695.604 94.6521H703.485L694.554 107.19V113.981H687.724V107.19L678.793 94.6521H686.673z" fill="#000"/></svg>